PathFileType	4	(X/Y/Z)	C:\Users\Basilio\Documents\Thesis Gigler\squatting_fais\c3dfiles\054\SLS_front_pre1\markers_experimental.trc
DataRate	CameraRate	NumFrames	NumMarkers	Units	OrigDataRate	OrigDataStartFrame	OrigNumFrames
200.000000	200.000000	4	61	mm	200.000000	838	1342
Frame#	Time	FHD			LBHD			RBHD			C7			T10			CLAV			LSHO			LUUPA			LMUPA			LDUPA			LLEP			LMEP			LRAD			LUL			LRFIN			RSHO			RUPA1			RMUPA			RDUPA			RLEP			RMEP			RRAD			RUL			RUFIN			LASI			RASI			USACR			LSACR			RSACR			LTHI1			LTHI2			LTHI3			LTHI4			LLFC			LMFC			LTIB1			LTIB2			LTIB3			LTIB4			LLMAL			LMMAL			LHEE			LMT1			LMT2			LMT5			RTHI			RTHI2			RTHI3			RTHI4			RLFC			RMFC			RTIB1			RTIB2			RTIB3			RTIB4			RLMAL			RMMAL			RHEE			RMT1			RMT2			RMT5			
		X1	Y1	Z1	X2	Y2	Z2	X3	Y3	Z3	X4	Y4	Z4	X5	Y5	Z5	X6	Y6	Z6	X7	Y7	Z7	X8	Y8	Z8	X9	Y9	Z9	X10	Y10	Z10	X11	Y11	Z11	X12	Y12	Z12	X13	Y13	Z13	X14	Y14	Z14	X15	Y15	Z15	X16	Y16	Z16	X17	Y17	Z17	X18	Y18	Z18	X19	Y19	Z19	X20	Y20	Z20	X21	Y21	Z21	X22	Y22	Z22	X23	Y23	Z23	X24	Y24	Z24	X25	Y25	Z25	X26	Y26	Z26	X27	Y27	Z27	X28	Y28	Z28	X29	Y29	Z29	X30	Y30	Z30	X31	Y31	Z31	X32	Y32	Z32	X33	Y33	Z33	X34	Y34	Z34	X35	Y35	Z35	X36	Y36	Z36	X37	Y37	Z37	X38	Y38	Z38	X39	Y39	Z39	X40	Y40	Z40	X41	Y41	Z41	X42	Y42	Z42	X43	Y43	Z43	X44	Y44	Z44	X45	Y45	Z45	X46	Y46	Z46	X47	Y47	Z47	X48	Y48	Z48	X49	Y49	Z49	X50	Y50	Z50	X51	Y51	Z51	X52	Y52	Z52	X53	Y53	Z53	X54	Y54	Z54	X55	Y55	Z55	X56	Y56	Z56	X57	Y57	Z57	X58	Y58	Z58	X59	Y59	Z59	X60	Y60	Z60	X61	Y61	Z61	

839	4.19	-168.8573150634766	1524.88916015625	-1109.168823242188	-333.1879272460938	1471.903198242188	-1173.430297851563	-345.3052978515626	1473.41259765625	-1033.202026367188	-387.644012451172	1330.563842773438	-1082.4970703125	-519.3931884765626	1028.938354492188	-1052.027221679688	-264.9259643554688	1238.291381835938	-1102.663452148438	-320.8869018554688	1321.83837890625	-1237.543334960938	-187.7803802490235	1213.538818359375	-1378.861206054688	-153.6285552978516	1246.251586914063	-1364.126586914063	-120.4368057250977	1205.554931640625	-1393.17529296875	-61.37825393676759	1209.271850585938	-1394.477783203125	-57.26005172729494	1141.007568359375	-1354.815185546875	197.1032867431641	1230.647338867188	-1326.624145507813	211.9784240722657	1203.63818359375	-1398.31640625	287.5477600097657	1254.416137695313	-1347.807373046875	-287.5031738281251	1318.525512695313	-957.4473876953127	-131.7706909179688	1218.093017578125	-834.101989746094	-98.65931701660159	1250.05419921875	-847.838317871094	-62.57246398925783	1205.801147460938	-825.0413818359377	-18.22683715820313	1203.107177734375	-828.726257324219	-19.82053184509278	1144.961181640625	-876.759948730469	240.0976562500001	1272.07080078125	-931.7713012695315	248.1693115234376	1230.401611328125	-863.4995727539065	316.3756103515626	1302.744506835938	-916.3193359375002	-389.4787902832032	828.8319091796877	-1166.4951171875	-359.3222961425782	865.739685058594	-920.6065063476565	-549.6370849609376	932.6893310546877	-1035.247436523438	-561.8046264648439	898.4151000976565	-1059.470947265625	-553.2459716796876	903.4150390625002	-1002.802124023438	-347.4244689941407	622.5122680664064	-1226.92724609375	-266.1423339843751	596.6856079101564	-1226.022094726563	-237.8319702148438	634.3208618164064	-1223.034545898438	-243.4953613281251	542.9150390625001	-1209.5498046875	-140.2618713378907	453.1943664550782	-1183.217407226563	-112.3862533569336	481.0803833007814	-1049.620483398438	-148.802474975586	310.0627136230469	-1099.939453125	-212.6724243164063	276.2438659667969	-1151.927368164063	-180.0505981445313	265.1563110351563	-1123.064697265625	-221.0943908691407	208.4851684570313	-1075.332397460938	-337.1703491210938	107.8734893798828	-1101.729248046875	-300.6818542480469	133.6812133789063	-1011.094055175781	-406.6823120117189	104.287826538086	-1038.868408203125	-198.6785125732422	56.1616554260254	-1018.239685058594	-189.834213256836	54.94338989257814	-1066.545776367188	-243.0246124267579	38.96626281738282	-1117.749633789063	-230.1799468994141	675.5145263671876	-822.2930297851565	-163.9258422851563	685.3494873046876	-830.6314086914065	-149.8806457519532	713.9288940429689	-841.875915527344	-109.1281814575196	623.5045166015626	-845.9412231445315	-54.18519973754884	566.2950439453126	-858.0103149414065	-35.65880203247071	598.4956054687501	-986.2783813476565	29.50452995300294	486.187957763672	-875.9011840820315	-18.14075660705567	394.1316223144532	-847.084899902344	26.12545204162598	399.5320434570314	-861.3836059570315	50.29420852661134	358.0178833007813	-892.269226074219	32.41496276855469	174.0796966552735	-887.7783813476565	66.59169769287111	201.6476440429688	-973.5423583984377	-11.50991439819336	121.5590286254883	-949.0167236328127	206.1846923828126	168.3395080566407	-947.6569824218752	204.9470825195313	179.8253173828125	-900.958190917969	160.1461334228516	149.8072662353516	-853.7846679687502	
840	4.195	-169.0249633789063	1526.898071289063	-1108.868286132813	-333.3227539062501	1473.968505859375	-1173.107421875	-345.6174011230469	1475.362182617188	-1032.977661132813	-387.7495117187501	1332.630737304688	-1082.169677734375	-519.0170288085939	1030.681518554688	-1052.161254882813	-264.6080017089844	1240.182983398438	-1102.380615234375	-321.0864562988282	1323.515014648438	-1237.319091796875	-188.1672515869141	1215.401000976563	-1378.767822265625	-153.713119506836	1248.15966796875	-1363.936767578125	-120.7362899780274	1207.57373046875	-1392.926513671875	-61.47607421875001	1211.23583984375	-1394.42626953125	-57.17376708984376	1143.268188476563	-1354.658447265625	197.0181427001954	1232.528442382813	-1326.294799804688	211.2916259765626	1205.72509765625	-1397.952514648438	287.0304565429688	1256.618041992188	-1347.39501953125	-287.5447692871094	1320.619873046875	-957.0955810546877	-131.7047729492188	1220.127685546875	-833.8496093750002	-98.73675537109378	1251.907104492188	-847.5681762695315	-62.88200759887697	1207.474731445313	-824.715270996094	-18.25901031494141	1204.858276367188	-828.4846801757815	-19.87142181396485	1146.867919921875	-876.4817504882815	240.8222961425782	1273.261840820313	-931.3237304687502	248.0900268554688	1232.151977539063	-863.1350708007815	316.1549377441407	1304.538452148438	-915.700622558594	-388.8898010253907	830.3388671875002	-1166.470336914063	-358.9118957519532	867.4433593750002	-920.5784301757815	-549.2014770507814	934.3869628906252	-1035.33935546875	-561.4238281250001	900.1543579101565	-1059.625854492188	-552.8195190429689	905.2260742187502	-1002.995666503906	-347.2008361816407	623.8815917968751	-1226.957275390625	-266.3656921386719	597.7910156250001	-1225.929077148438	-237.3715820312501	635.0534667968751	-1222.816162109375	-243.6631774902344	543.8571777343751	-1209.494140625	-141.1170043945313	453.8836059570314	-1183.010864257813	-112.8818588256836	481.4056701660157	-1049.519409179688	-149.3777770996094	310.3262634277344	-1099.705932617188	-213.0244445800782	276.4996032714844	-1151.773315429688	-180.1429138183594	265.3465881347657	-1122.970825195313	-221.1630859375001	208.6389465332032	-1075.27783203125	-337.0661621093751	107.8550872802735	-1101.66259765625	-300.7312316894532	133.6824035644532	-1011.049987792969	-406.7149353027345	104.2809753417969	-1038.870483398438	-198.6767120361329	56.1598472595215	-1018.224365234375	-189.8282470703125	54.97069931030275	-1066.570434570313	-243.0313720703126	39.00510787963868	-1117.732421875	-230.0958709716797	676.6765136718751	-822.245544433594	-163.846420288086	686.4862060546876	-830.6119384765627	-149.7059478759766	714.8101806640626	-842.040466308594	-109.1552963256836	624.3670654296876	-845.9990844726565	-54.55770874023439	566.9885253906251	-857.923278808594	-35.29597473144532	599.0603027343751	-986.384460449219	29.28339195251466	486.6852416992189	-875.7757568359377	-18.44282150268555	394.7158508300782	-847.009216308594	25.76022148132325	400.0327148437501	-861.1987304687502	49.83554458618165	358.4875793457032	-892.1934814453127	32.14861297607423	174.5742950439453	-887.7797851562502	66.16370391845705	202.122299194336	-973.4038696289065	-11.95622539520264	122.1916275024414	-948.8968505859377	205.8941040039063	168.6455841064453	-947.589538574219	204.647933959961	180.224838256836	-900.840759277344	159.7072906494141	150.2455444335938	-853.703552246094	
841	4.2	-169.2560424804688	1529.117309570313	-1108.676025390625	-333.4383239746094	1475.980834960938	-1172.851928710938	-345.7322998046876	1477.406982421875	-1032.70166015625	-387.6093750000001	1334.408813476563	-1082.057861328125	-518.8455810546876	1032.43994140625	-1052.074096679688	-264.6439514160157	1242.429931640625	-1102.158569335938	-321.2637329101563	1325.606323242188	-1237.304443359375	-188.2715911865235	1217.445190429688	-1378.573364257813	-153.7620391845703	1250.218505859375	-1363.797485351563	-120.6590728759766	1209.6201171875	-1392.878295898438	-61.74362564086915	1213.294921875	-1394.25341796875	-57.42549896240236	1144.987915039063	-1354.498657226563	196.874496459961	1234.665405273438	-1325.972412109375	211.6197204589844	1207.672729492188	-1397.63232421875	287.1864318847657	1258.298583984375	-1346.81298828125	-287.5903320312501	1322.598022460938	-956.8061523437502	-131.8749084472657	1221.90673828125	-833.432556152344	-98.67998504638675	1253.88427734375	-847.3123779296877	-62.90587615966798	1209.509399414063	-824.5375976562502	-18.18302726745606	1206.709350585938	-828.867126464844	-20.08098983764649	1148.73095703125	-876.2738037109377	240.1905059814454	1275.478759765625	-930.8148193359377	247.898666381836	1233.841674804688	-862.7189941406252	316.1681823730469	1306.27783203125	-915.2572021484377	-388.2566833496095	831.8001708984377	-1166.364379882813	-358.7417602539063	869.0051879882815	-920.5938720703127	-548.7122802734376	936.1771240234377	-1035.346069335938	-560.7655639648439	901.8430786132815	-1059.620849609375	-552.3131713867189	907.051940917969	-1003.115539550781	-347.6209411621094	625.1835937500001	-1226.960327148438	-266.5132751464844	598.7550048828126	-1225.804321289063	-237.2662200927735	635.9822387695314	-1222.728515625	-243.8023681640626	544.7601318359376	-1209.416015625	-141.7311096191407	454.3525390625001	-1182.768920898438	-113.398063659668	481.6781616210939	-1049.566040039063	-149.42724609375	310.5475769042969	-1099.58056640625	-213.4210357666016	276.7956542968751	-1151.641235351563	-180.3234558105469	265.6075744628907	-1122.9921875	-221.352767944336	208.928695678711	-1075.24658203125	-337.3166503906251	107.9370651245117	-1101.682739257813	-300.7799072265626	133.6906890869141	-1011.012634277344	-406.7207336425782	104.2927932739258	-1038.874389648438	-198.6837158203126	56.14411544799806	-1018.143432617188	-189.849853515625	55.01758956909181	-1066.529418945313	-243.0061645507813	38.99369430541993	-1117.727172851563	-229.9995574951172	677.8929443359376	-822.3325195312502	-163.728271484375	687.2581176757814	-830.632751464844	-149.4916687011719	715.7326049804689	-841.9790649414065	-109.2189254760742	625.1357421875001	-845.950866699219	-54.60759735107423	567.6489868164064	-857.973083496094	-35.43561553955079	599.5985107421876	-986.2246093750002	29.09481620788575	487.1828918457032	-875.7796630859377	-18.72544860839844	395.2763977050782	-846.941833496094	25.30952453613282	400.6715393066407	-861.0218505859377	49.63317489624025	358.8405456542969	-892.3015136718752	31.6506690979004	175.2259063720703	-887.6245727539065	65.86352539062501	202.6954345703126	-973.4232177734377	-12.69037628173828	122.9323348999024	-948.8544921875002	205.6109771728516	169.1332092285157	-947.5241699218752	204.1717529296876	180.5999145507813	-900.7006835937502	159.2281188964844	150.5830993652344	-853.612243652344	
842	4.205	-169.450912475586	1531.393188476563	-1108.4970703125	-333.9399108886719	1478.063842773438	-1172.666259765625	-345.9911804199219	1479.455078125	-1032.394287109375	-387.8527221679689	1336.262451171875	-1081.949584960938	-518.5638427734376	1034.22265625	-1051.887084960938	-264.5018310546876	1244.365356445313	-1101.945678710938	-321.3246459960938	1327.4677734375	-1237.123168945313	-188.3769683837891	1219.467407226563	-1378.345703125	-154.5588989257813	1252.30908203125	-1363.73291015625	-121.0388946533203	1211.693969726563	-1392.543334960938	-61.81844329833986	1215.311645507813	-1394.06396484375	-57.53025054931642	1147.080810546875	-1354.405151367188	196.8010864257813	1236.706787109375	-1325.6337890625	211.0764617919922	1209.953857421875	-1397.371459960938	287.0404663085938	1260.52490234375	-1346.352294921875	-287.7482910156251	1324.501220703125	-956.6683349609377	-131.790267944336	1223.764282226563	-833.2671508789065	-98.70086669921878	1255.73583984375	-847.0269165039065	-63.23886108398439	1211.502807617188	-824.0323486328127	-18.43028450012207	1208.785400390625	-827.6306762695315	-20.11316299438477	1150.704711914063	-875.793395996094	240.1643524169922	1277.196899414063	-930.4371337890627	247.8401184082032	1235.735717773438	-862.094665527344	316.0783691406251	1307.990356445313	-914.6689453125002	-387.840057373047	833.4144287109377	-1166.384887695313	-358.2083129882813	870.9674072265627	-920.6541137695315	-548.2345581054689	937.9939575195315	-1035.432250976563	-560.5259399414064	903.8190917968752	-1059.63818359375	-551.8325195312501	908.931579589844	-1003.106628417969	-347.7299499511719	626.6644897460939	-1227.05078125	-266.5604248046876	599.6138305664064	-1225.796142578125	-237.2075347900391	636.9489746093751	-1222.75439453125	-244.1629486083985	545.5878906250001	-1209.283813476563	-142.4444122314453	454.8048095703126	-1182.59814453125	-114.0381546020508	482.0249938964845	-1049.470581054688	-149.6716766357422	310.8124694824219	-1099.607055664063	-213.663070678711	277.0627136230469	-1151.530395507813	-180.5174102783203	265.8955688476563	-1122.924560546875	-221.4262695312501	209.0380401611329	-1075.26416015625	-337.2731933593751	107.9989624023438	-1101.668334960938	-300.7837829589844	133.7086486816407	-1010.943176269531	-406.7108459472657	104.3159484863282	-1038.873168945313	-198.700912475586	56.14399719238283	-1018.137817382813	-189.8665313720703	55.05914688110353	-1066.534912109375	-242.943099975586	38.84029006958009	-1117.700561523438	-229.8067169189454	679.0383300781251	-822.3776855468752	-163.5454559326172	688.1052856445314	-830.6951293945315	-149.232421875	716.7219848632814	-841.9429321289065	-109.3143463134766	625.9225463867189	-845.917175292969	-54.63984680175783	568.1636352539064	-857.893493652344	-35.18279647827149	600.2498779296876	-986.2390136718752	28.75902175903321	487.8140869140626	-875.7041015625002	-18.96139907836914	395.771209716797	-846.8627929687502	25.01337623596192	401.2041320800782	-860.9583129882815	49.46598434448244	359.3858337402344	-892.214782714844	31.42074394226075	175.7399597167969	-887.660095214844	65.42822265625001	203.1621551513672	-973.1948852539065	-13.04917144775391	123.4376220703125	-948.8858642578127	205.1377716064454	169.7495574951172	-947.3865966796877	203.6698760986329	181.1020202636719	-900.6448364257815	158.8056182861328	151.047836303711	-853.487243652344	
